<svg width="1280" height="420" viewBox="0 0 1280 420" xmlns="http://www.w3.org/2000/svg" role="img" aria-labelledby="title desc">
  <title id="title">Birthday Reminder Bot — Lumen</title>
  <desc id="desc">Dark cosmic banner. Left side: a small eyebrow label, a large word-mark "Lumen", a one-line tagline and a stack line. Right side: a glowing Lumen planet with an inclined orbit and a small candle-flame satellite.</desc>

  <defs>
    <linearGradient id="bg" x1="0" y1="0" x2="1280" y2="420" gradientUnits="userSpaceOnUse">
      <stop offset="0" stop-color="#0A0D1F"/>
      <stop offset="0.5" stop-color="#141938"/>
      <stop offset="1" stop-color="#070912"/>
    </linearGradient>

    <radialGradient id="auraLeft" cx="0" cy="0" r="1" gradientUnits="userSpaceOnUse" gradientTransform="translate(180 110) scale(380 280)">
      <stop stop-color="#7C5CFF" stop-opacity="0.55"/>
      <stop offset="1" stop-color="#7C5CFF" stop-opacity="0"/>
    </radialGradient>
    <radialGradient id="auraRight" cx="0" cy="0" r="1" gradientUnits="userSpaceOnUse" gradientTransform="translate(1080 230) scale(380 280)">
      <stop stop-color="#3AB8FF" stop-opacity="0.42"/>
      <stop offset="1" stop-color="#3AB8FF" stop-opacity="0"/>
    </radialGradient>
    <radialGradient id="auraBottom" cx="0" cy="0" r="1" gradientUnits="userSpaceOnUse" gradientTransform="translate(640 460) scale(540 220)">
      <stop stop-color="#FF7AB6" stop-opacity="0.16"/>
      <stop offset="1" stop-color="#FF7AB6" stop-opacity="0"/>
    </radialGradient>

    <linearGradient id="accent" x1="0" y1="0" x2="1" y2="1">
      <stop stop-color="#A58CFF"/>
      <stop offset="0.5" stop-color="#79AFFF"/>
      <stop offset="1" stop-color="#BDF5FF"/>
    </linearGradient>

    <linearGradient id="wordmark" x1="96" y1="170" x2="640" y2="270" gradientUnits="userSpaceOnUse">
      <stop stop-color="#FFFFFF"/>
      <stop offset="0.55" stop-color="#D9E1FF"/>
      <stop offset="1" stop-color="#A58CFF"/>
    </linearGradient>

    <radialGradient id="planetCore" cx="0" cy="0" r="1" gradientUnits="userSpaceOnUse" gradientTransform="translate(1020 180) rotate(35) scale(180 180)">
      <stop offset="0" stop-color="#FFFFFF"/>
      <stop offset="0.18" stop-color="#E6E2FF"/>
      <stop offset="0.55" stop-color="#9D8AFF"/>
      <stop offset="1" stop-color="#1E2148"/>
    </radialGradient>
    <radialGradient id="planetGlow" cx="0" cy="0" r="1" gradientUnits="userSpaceOnUse" gradientTransform="translate(1060 220) scale(240 240)">
      <stop offset="0" stop-color="#A58CFF" stop-opacity="0.55"/>
      <stop offset="0.55" stop-color="#79AFFF" stop-opacity="0.18"/>
      <stop offset="1" stop-color="#79AFFF" stop-opacity="0"/>
    </radialGradient>

    <linearGradient id="ring" x1="900" y1="120" x2="1240" y2="320" gradientUnits="userSpaceOnUse">
      <stop stop-color="#A58CFF" stop-opacity="0.95"/>
      <stop offset="0.55" stop-color="#79AFFF" stop-opacity="0.7"/>
      <stop offset="1" stop-color="#BDF5FF" stop-opacity="0.2"/>
    </linearGradient>

    <linearGradient id="flame" x1="0" y1="0" x2="0" y2="1">
      <stop stop-color="#FFE9A8"/>
      <stop offset="0.55" stop-color="#FFB36A"/>
      <stop offset="1" stop-color="#FF6E9A"/>
    </linearGradient>

    <filter id="softGlow" x="-30%" y="-30%" width="160%" height="160%" color-interpolation-filters="sRGB">
      <feGaussianBlur stdDeviation="10"/>
    </filter>
    <filter id="haloGlow" x="-50%" y="-50%" width="200%" height="200%" color-interpolation-filters="sRGB">
      <feGaussianBlur stdDeviation="48"/>
    </filter>
  </defs>

  <!-- background -->
  <rect width="1280" height="420" rx="28" fill="url(#bg)"/>
  <rect width="1280" height="420" rx="28" fill="url(#auraLeft)"/>
  <rect width="1280" height="420" rx="28" fill="url(#auraRight)"/>
  <rect width="1280" height="420" rx="28" fill="url(#auraBottom)"/>

  <!-- starfield -->
  <g fill="#FFFFFF">
    <circle cx="84" cy="58" r="1.4" opacity="0.85"/>
    <circle cx="220" cy="88" r="1.1" opacity="0.7"/>
    <circle cx="368" cy="46" r="1.6" opacity="0.9"/>
    <circle cx="510" cy="102" r="1" opacity="0.6"/>
    <circle cx="142" cy="350" r="1.3" opacity="0.75"/>
    <circle cx="44" cy="240" r="1" opacity="0.55"/>
    <circle cx="296" cy="362" r="1.5" opacity="0.85"/>
    <circle cx="612" cy="58" r="1" opacity="0.55"/>
    <circle cx="780" cy="78" r="1.3" opacity="0.75"/>
    <circle cx="1226" cy="118" r="1" opacity="0.55"/>
    <circle cx="1244" cy="296" r="1.4" opacity="0.8"/>
    <circle cx="852" cy="358" r="1.1" opacity="0.6"/>
  </g>
  <g fill="#BDF5FF" opacity="0.85">
    <circle cx="200" cy="180" r="1.1"/>
    <circle cx="700" cy="148" r="1.3"/>
    <circle cx="1110" cy="358" r="1.3"/>
  </g>

  <!-- planet halo -->
  <circle cx="1040" cy="210" r="180" fill="url(#planetGlow)" filter="url(#haloGlow)"/>

  <!-- inclined orbit -->
  <g transform="translate(1040 218) rotate(-22)">
    <ellipse rx="186" ry="74" fill="none" stroke="url(#ring)" stroke-width="2" opacity="0.92"/>
    <ellipse rx="186" ry="74" fill="none" stroke="#BDF5FF" stroke-width="1" opacity="0.18"/>
    <g fill="#D9E1FF">
      <circle cx="-186" cy="0" r="2.2" opacity="0.9"/>
      <circle cx="-130" cy="-52" r="1.6" opacity="0.7"/>
      <circle cx="-50" cy="-72" r="1.8" opacity="0.85"/>
      <circle cx="60" cy="-70" r="2" opacity="0.9"/>
      <circle cx="150" cy="-44" r="1.6" opacity="0.7"/>
      <circle cx="120" cy="58" r="1.6" opacity="0.7"/>
      <circle cx="20" cy="72" r="2" opacity="0.9"/>
      <circle cx="-92" cy="64" r="1.6" opacity="0.7"/>
      <circle cx="-164" cy="34" r="1.4" opacity="0.6"/>
    </g>
  </g>

  <!-- planet body -->
  <g>
    <circle cx="1040" cy="210" r="96" fill="url(#planetCore)"/>
    <ellipse cx="1004" cy="176" rx="34" ry="18" fill="#FFFFFF" opacity="0.32"/>
    <path d="M1040 114 a96 96 0 0 1 0 192 a86 86 0 0 0 0 -192 z" fill="#0A0D24" opacity="0.45"/>
    <g fill="#0A0D24" opacity="0.18">
      <circle cx="1018" cy="236" r="9"/>
      <circle cx="1064" cy="256" r="6"/>
      <circle cx="1080" cy="188" r="5"/>
      <circle cx="998" cy="208" r="4"/>
    </g>
    <circle cx="1040" cy="210" r="96" fill="none" stroke="#BDF5FF" stroke-width="1.2" opacity="0.45"/>
  </g>

  <!-- candle-flame satellite (right tip of orbit) -->
  <g transform="translate(1213 178) rotate(-22)">
    <g filter="url(#softGlow)" opacity="0.85">
      <ellipse cx="0" cy="-2" rx="14" ry="22" fill="#FFB36A"/>
    </g>
    <path d="M-7 8 C -10 -2 -2 -8 0 -16 C 2 -8 10 -2 7 8 C 7 14 -7 14 -7 8 Z" fill="url(#flame)"/>
    <rect x="-4" y="8" width="8" height="14" rx="2" fill="#F2EAFF"/>
    <rect x="-4" y="8" width="8" height="3" fill="#A58CFF" opacity="0.7"/>
  </g>

  <!-- decorative sparkle -->
  <g transform="translate(948 96)" opacity="0.9">
    <path d="M0 -14 L3 -3 L14 0 L3 3 L0 14 L-3 3 L-14 0 L-3 -3 Z" fill="#FFFFFF"/>
  </g>

  <!-- text block -->
  <g font-family="Inter, 'Segoe UI', system-ui, -apple-system, Arial, sans-serif">
    <!-- eyebrow -->
    <g transform="translate(96 110)">
      <rect x="0" y="-12" width="14" height="2" rx="1" fill="url(#accent)"/>
      <text x="24" y="-4" fill="#9EB1FF" font-size="13" font-weight="700" letter-spacing="3.4">
        BIRTHDAY · REMINDER · BOT
      </text>
    </g>

    <!-- wordmark -->
    <text x="96" y="232" fill="url(#wordmark)" font-size="148" font-weight="800" letter-spacing="-3">
      Lumen
    </text>

    <!-- short divider -->
    <rect x="96" y="252" width="56" height="3" rx="1.5" fill="url(#accent)" opacity="0.9"/>

    <!-- tagline -->
    <text x="96" y="296" fill="#E5E9FF" font-size="22" font-weight="600">
      A calm Telegram-first assistant
    </text>
    <text x="96" y="324" fill="#BFC8E8" font-size="18" font-weight="500">
      for remembering the birthdays that matter.
    </text>

    <!-- stack line -->
    <g transform="translate(96 366)" font-size="12" font-weight="700" letter-spacing="2.2" fill="#9EB1FF">
      <circle cx="3" cy="-3" r="3" fill="#A58CFF"/>
      <text x="14" y="0">TYPESCRIPT</text>
      <text x="120" y="0" fill="#3A3F70">·</text>
      <text x="134" y="0">GRAMMY</text>
      <text x="210" y="0" fill="#3A3F70">·</text>
      <text x="224" y="0">PRISMA</text>
      <text x="296" y="0" fill="#3A3F70">·</text>
      <text x="310" y="0">POSTGRES</text>
      <text x="404" y="0" fill="#3A3F70">·</text>
      <text x="418" y="0">DKRON</text>
    </g>
  </g>
</svg>
